<svg id="svg" version="1.1" xmlns="http://www.w3.org/2000/svg" xmlns:xlink="http://www.w3.org/1999/xlink" width="400" height="400" viewBox="0, 0, 400,400"><g id="svgg"><path id="path0" d="M1.817 1.057 C 1.118 1.237,1.101 7.098,1.231 200.621 L 1.366 400.000 200.683 400.000 L 400.000 400.000 400.000 200.390 L 400.000 0.780 201.268 0.826 C 91.966 0.851,2.213 0.955,1.817 1.057 M213.714 100.093 C 291.985 108.838,330.347 198.811,283.185 263.024 C 277.430 270.860,276.386 271.705,272.390 271.762 C 263.450 271.890,259.182 261.050,265.915 255.316 C 272.445 249.757,281.079 232.555,283.888 219.512 C 298.665 150.889,229.416 95.962,165.748 125.805 C 117.247 148.537,103.003 212.067,136.951 254.235 C 140.973 259.231,141.661 261.385,140.528 265.422 C 138.518 272.584,127.880 274.111,124.122 267.778 C 123.572 266.851,122.551 265.271,121.854 264.266 C 110.342 247.683,105.931 238.146,102.507 222.439 C 89.987 165.011,131.090 106.898,188.878 100.324 C 190.917 100.092,193.112 99.841,193.756 99.766 C 197.009 99.386,209.177 99.586,213.714 100.093 M257.951 159.220 C 257.951 159.434,257.785 159.610,257.582 159.610 C 257.379 159.610,252.603 164.571,246.969 170.634 C 220.832 198.760,207.990 211.673,204.394 213.443 C 194.255 218.434,182.849 212.044,182.837 201.366 C 182.828 193.402,186.168 190.561,205.854 181.786 C 207.142 181.212,211.532 179.220,215.610 177.360 C 224.031 173.520,232.554 169.744,243.317 165.086 C 247.395 163.322,252.224 161.209,254.049 160.392 C 257.769 158.727,257.951 158.672,257.951 159.220 M209.089 254.334 L 209.202 257.546 218.064 257.651 L 226.927 257.756 227.037 261.698 C 227.120 264.640,227.014 265.750,226.621 266.077 C 226.252 266.383,220.553 266.547,207.646 266.623 L 189.199 266.732 188.453 267.653 C 187.882 268.359,187.707 269.197,187.707 271.234 C 187.707 275.713,186.929 275.512,204.292 275.512 C 227.232 275.512,228.350 276.098,228.620 288.270 C 228.887 300.267,226.204 302.796,213.187 302.822 L 209.202 302.829 209.089 306.049 L 208.976 309.268 202.634 309.376 L 196.293 309.483 196.293 306.156 L 196.293 302.829 187.024 302.823 C 175.840 302.816,176.725 303.243,176.864 297.920 L 176.976 293.659 196.575 293.463 L 216.174 293.268 217.063 292.379 C 218.520 290.922,218.384 285.573,216.856 284.259 L 215.761 283.317 200.973 283.317 C 178.401 283.317,177.131 282.677,176.841 271.139 C 176.564 260.124,179.143 257.561,190.509 257.561 L 196.293 257.561 196.293 254.234 L 196.293 250.907 202.634 251.015 L 208.976 251.122 209.089 254.334 " stroke="none" fill="#141414" fill-rule="evenodd"></path><path id="path1" d="M134.024 126.146 L 132.878 127.415 134.146 126.268 C 135.329 125.200,135.594 124.878,135.293 124.878 C 135.225 124.878,134.655 125.449,134.024 126.146 M196.293 254.234 L 196.293 257.561 190.509 257.561 C 179.143 257.561,176.564 260.124,176.841 271.139 C 177.131 282.677,178.401 283.317,200.973 283.317 L 215.761 283.317 216.856 284.259 C 218.384 285.573,218.520 290.922,217.063 292.379 L 216.174 293.268 196.575 293.463 L 176.976 293.659 176.864 297.920 C 176.725 303.243,175.840 302.816,187.024 302.823 L 196.293 302.829 196.293 306.156 L 196.293 309.483 202.634 309.376 L 208.976 309.268 209.089 306.049 L 209.202 302.829 213.187 302.822 C 226.204 302.796,228.887 300.267,228.620 288.270 C 228.350 276.098,227.232 275.512,204.292 275.512 C 186.929 275.512,187.707 275.713,187.707 271.234 C 187.707 269.197,187.882 268.359,188.453 267.653 L 189.199 266.732 207.646 266.623 C 220.553 266.547,226.252 266.383,226.621 266.077 C 227.014 265.750,227.120 264.640,227.037 261.698 L 226.927 257.756 218.064 257.651 L 209.202 257.546 209.089 254.334 L 208.976 251.122 202.634 251.015 L 196.293 250.907 196.293 254.234 " stroke="none" fill="#f0edf6" fill-rule="evenodd"></path><path id="path2" d="M195.317 99.757 C 185.503 100.575,165.854 105.080,165.854 106.513 C 165.854 106.693,165.634 106.832,165.366 106.822 C 164.112 106.775,163.487 106.960,163.705 107.313 C 163.841 107.534,163.685 107.599,163.337 107.466 C 163.003 107.338,162.732 107.438,162.732 107.689 C 162.732 107.939,162.556 108.035,162.341 107.902 C 162.127 107.770,161.951 107.858,161.951 108.098 C 161.951 108.338,161.791 108.435,161.596 108.314 C 161.120 108.020,159.954 108.489,160.195 108.878 C 160.453 109.295,159.255 109.726,158.734 109.404 C 158.470 109.241,158.435 109.336,158.638 109.665 C 158.872 110.043,158.778 110.113,158.288 109.924 C 157.836 109.751,157.709 109.815,157.897 110.120 C 158.086 110.424,157.958 110.488,157.507 110.315 C 157.056 110.142,156.929 110.205,157.117 110.510 C 157.305 110.814,157.178 110.878,156.727 110.705 C 156.275 110.532,156.148 110.595,156.336 110.900 C 156.525 111.205,156.397 111.268,155.946 111.095 C 155.495 110.922,155.368 110.986,155.556 111.290 C 155.744 111.595,155.617 111.659,155.166 111.485 C 154.714 111.312,154.587 111.376,154.775 111.681 C 154.964 111.985,154.836 112.049,154.385 111.876 C 153.934 111.702,153.807 111.766,153.995 112.071 C 154.183 112.375,154.056 112.439,153.605 112.266 C 153.226 112.121,153.034 112.168,153.161 112.375 C 153.462 112.862,151.911 113.673,151.346 113.324 C 151.082 113.160,151.011 113.224,151.170 113.481 C 151.317 113.718,151.092 114.096,150.671 114.322 C 149.675 114.855,149.350 114.841,149.696 114.281 C 149.870 114.000,149.803 113.937,149.517 114.113 C 149.266 114.268,149.152 114.544,149.264 114.725 C 149.543 115.177,146.847 116.800,146.339 116.486 C 146.115 116.348,145.980 116.467,146.039 116.751 C 146.098 117.037,145.843 117.244,145.468 117.215 C 145.094 117.185,144.873 117.297,144.976 117.463 C 145.078 117.630,143.832 118.767,142.206 119.991 C 134.433 125.841,127.830 132.307,122.181 139.599 C 120.814 141.364,119.557 142.722,119.387 142.617 C 119.217 142.512,118.951 142.632,118.796 142.883 C 118.620 143.169,118.683 143.236,118.964 143.062 C 119.212 142.909,119.415 142.876,119.415 142.989 C 119.415 143.437,115.430 149.268,115.123 149.268 C 114.944 149.268,114.650 149.428,114.472 149.624 C 114.283 149.830,114.351 149.861,114.634 149.698 C 115.230 149.355,115.254 149.658,114.712 150.671 C 114.487 151.092,114.108 151.317,113.871 151.170 C 113.619 151.014,113.550 151.082,113.705 151.332 C 114.024 151.849,110.026 160.032,109.586 159.760 C 109.416 159.655,109.393 159.871,109.534 160.239 C 109.722 160.729,109.653 160.823,109.274 160.589 C 108.921 160.371,108.850 160.420,109.050 160.744 C 109.439 161.373,108.511 163.572,107.992 163.252 C 107.756 163.106,107.704 163.191,107.867 163.455 C 108.262 164.094,107.740 165.530,107.229 165.214 C 106.977 165.058,106.919 165.135,107.085 165.404 C 107.484 166.049,105.295 172.603,104.885 171.994 C 104.704 171.723,104.677 172.008,104.826 172.644 C 105.029 173.516,104.973 173.703,104.582 173.461 C 104.245 173.253,104.169 173.301,104.357 173.604 C 104.762 174.260,103.760 178.504,103.350 177.868 C 103.167 177.585,103.137 177.946,103.281 178.695 C 103.440 179.521,103.393 179.935,103.156 179.789 C 102.928 179.648,102.837 180.055,102.928 180.801 C 103.046 181.775,102.987 181.920,102.656 181.463 C 102.339 181.024,102.291 181.317,102.465 182.634 C 102.629 183.876,102.582 184.225,102.302 183.825 C 102.021 183.422,101.964 183.758,102.107 184.996 C 102.256 186.296,102.201 186.585,101.887 186.146 C 101.577 185.712,101.527 186.066,101.693 187.512 C 101.867 189.021,101.817 189.331,101.473 188.878 C 101.130 188.428,101.083 188.787,101.268 190.439 C 101.450 192.058,101.403 192.442,101.076 192.000 C 100.754 191.564,100.691 192.510,100.830 195.707 C 100.943 198.320,100.896 199.389,100.710 198.439 C 100.469 197.213,100.397 197.672,100.375 200.585 C 100.359 202.830,100.472 203.985,100.663 203.512 C 100.837 203.083,100.887 204.620,100.775 206.927 C 100.653 209.438,100.719 211.122,100.939 211.122 C 101.141 211.122,101.235 211.737,101.147 212.488 C 101.044 213.372,101.151 213.854,101.452 213.854 C 101.766 213.854,101.831 214.238,101.655 215.040 C 101.499 215.752,101.577 216.447,101.851 216.778 C 102.103 217.081,102.192 217.696,102.049 218.146 C 101.906 218.596,101.994 219.212,102.245 219.514 C 102.496 219.816,102.583 220.254,102.439 220.488 C 102.295 220.721,102.383 221.160,102.634 221.463 C 102.886 221.767,102.986 222.186,102.856 222.395 C 102.727 222.604,102.812 222.893,103.045 223.037 C 103.277 223.181,103.365 223.566,103.239 223.894 C 103.114 224.221,103.205 224.723,103.441 225.008 C 103.678 225.293,103.759 225.710,103.620 225.934 C 103.482 226.158,103.502 226.558,103.666 226.822 C 103.829 227.087,103.988 227.570,104.020 227.896 C 104.630 234.291,113.395 252.493,120.185 261.463 C 121.403 263.073,122.909 265.333,123.532 266.486 C 127.843 274.473,140.048 271.841,140.089 262.914 C 140.101 260.301,139.366 258.807,136.025 254.653 C 108.707 220.688,111.515 172.427,142.611 141.459 C 175.263 108.942,226.090 108.476,259.955 140.383 C 262.180 142.480,263.319 143.405,262.486 142.439 C 261.654 141.473,259.810 139.593,258.389 138.260 C 256.968 136.927,255.949 135.829,256.126 135.821 C 256.634 135.796,262.659 140.884,264.539 142.927 C 267.347 145.977,267.317 146.060,267.317 135.220 C 267.317 129.961,267.431 125.659,267.570 125.659 C 268.138 125.659,271.656 128.764,275.490 132.650 C 279.393 136.606,279.442 136.641,276.661 133.494 C 268.452 124.207,255.666 114.971,243.026 109.200 C 240.101 107.864,237.785 106.647,237.879 106.495 C 237.973 106.343,237.654 106.306,237.171 106.412 C 236.506 106.558,236.427 106.510,236.846 106.214 C 237.968 105.423,224.533 101.801,215.627 100.493 C 211.446 99.878,199.192 99.435,195.317 99.757 M253.360 161.952 C 251.200 163.394,249.010 165.370,250.537 164.499 C 250.859 164.315,251.581 163.847,252.142 163.460 C 252.702 163.072,253.241 162.835,253.339 162.933 C 253.437 163.030,254.110 162.498,254.835 161.750 C 256.538 159.993,256.230 160.035,253.360 161.952 M249.152 167.512 L 247.610 169.171 249.268 167.628 C 250.811 166.194,251.106 165.854,250.811 165.854 C 250.747 165.854,250.001 166.600,249.152 167.512 M243.499 173.561 L 241.366 175.805 243.610 173.672 C 244.844 172.499,245.854 171.489,245.854 171.428 C 245.854 171.138,245.480 171.476,243.499 173.561 M238.049 179.317 C 237.101 180.283,236.413 181.073,236.520 181.073 C 236.628 181.073,237.491 180.283,238.439 179.317 C 239.387 178.351,240.075 177.561,239.967 177.561 C 239.860 177.561,238.997 178.351,238.049 179.317 M231.210 186.634 L 228.098 189.854 231.317 186.741 C 233.088 185.029,234.537 183.580,234.537 183.521 C 234.537 183.237,234.101 183.644,231.210 186.634 M221.846 196.390 L 218.341 200.000 221.951 196.496 C 225.304 193.241,225.739 192.780,225.455 192.780 C 225.397 192.780,223.773 194.405,221.846 196.390 M265.340 258.634 C 263.754 261.262,264.438 266.306,266.560 267.631 C 267.296 268.091,267.317 267.950,267.317 262.637 C 267.317 256.572,266.987 255.905,265.340 258.634 M278.075 268.005 C 276.923 269.345,276.663 269.774,277.428 269.073 C 278.586 268.012,280.428 265.749,280.124 265.761 C 280.056 265.764,279.134 266.773,278.075 268.005 M265.951 269.420 C 267.484 270.679,269.789 271.306,272.201 271.120 C 274.107 270.973,274.098 270.969,271.747 270.900 C 269.929 270.846,268.794 270.542,267.064 269.644 C 265.002 268.573,264.894 268.551,265.951 269.420 " stroke="none" fill="#635bb0" fill-rule="evenodd"></path><path id="path3" d="M155.501 111.136 C 150.529 113.712,145.561 116.726,145.561 117.166 C 145.561 117.332,147.010 116.555,148.780 115.438 C 150.551 114.321,153.932 112.393,156.293 111.152 C 158.654 109.911,160.410 108.898,160.195 108.901 C 159.980 108.903,157.868 109.909,155.501 111.136 M143.024 118.663 C 142.166 119.311,141.405 120.010,141.333 120.216 C 141.261 120.422,141.077 120.513,140.926 120.420 C 140.774 120.326,139.779 121.063,138.715 122.057 C 137.651 123.051,136.672 123.837,136.539 123.803 C 136.407 123.769,135.737 124.440,135.051 125.293 C 134.365 126.147,133.671 126.762,133.507 126.661 C 133.344 126.560,131.911 127.786,130.322 129.385 C 128.734 130.984,127.620 132.293,127.848 132.293 C 128.076 132.293,129.432 131.080,130.863 129.599 C 132.293 128.117,133.463 126.982,133.463 127.077 C 133.463 127.314,139.354 122.241,140.195 121.280 C 140.571 120.850,140.878 120.612,140.878 120.750 C 140.878 120.888,141.844 120.272,143.024 119.380 C 144.205 118.489,145.171 117.693,145.171 117.612 C 145.171 117.232,144.457 117.582,143.024 118.663 M267.317 135.187 C 267.317 146.063,267.348 145.978,264.539 142.927 C 262.661 140.886,256.635 135.796,256.126 135.820 C 255.949 135.828,257.053 137.014,258.579 138.454 C 284.906 163.307,293.310 201.050,279.766 233.607 C 276.369 241.770,269.761 252.317,265.940 255.672 C 259.983 260.902,263.163 270.258,271.070 270.762 C 275.414 271.038,276.272 270.451,281.559 263.593 C 312.260 223.764,310.227 170.760,276.579 133.778 C 273.807 130.732,268.651 126.060,267.689 125.724 C 267.460 125.643,267.317 129.280,267.317 135.187 M126.775 133.477 C 125.504 134.426,121.196 139.707,121.692 139.707 C 121.890 139.707,122.717 138.873,123.529 137.854 C 124.341 136.834,125.716 135.254,126.584 134.341 C 128.308 132.530,128.361 132.293,126.775 133.477 M120.878 140.641 C 120.502 140.926,120.195 141.345,120.195 141.571 C 120.195 141.798,119.976 142.062,119.707 142.158 C 119.439 142.254,119.327 142.449,119.458 142.591 C 119.589 142.734,120.168 142.231,120.746 141.474 C 121.890 139.973,121.909 139.858,120.878 140.641 M117.951 144.649 C 117.683 144.757,117.463 145.094,117.463 145.398 C 117.463 145.702,117.288 145.951,117.073 145.951 C 116.859 145.951,116.683 146.200,116.683 146.504 C 116.683 146.808,116.463 147.145,116.195 147.254 C 115.896 147.374,115.876 147.463,116.143 147.481 C 116.383 147.498,117.044 146.810,117.612 145.951 C 118.180 145.093,118.599 144.404,118.542 144.421 C 118.485 144.438,118.220 144.540,117.951 144.649 M115.512 148.275 C 115.512 148.480,115.054 149.315,114.495 150.129 C 111.212 154.907,105.212 169.684,103.390 177.479 C 102.147 182.796,102.567 182.437,103.978 176.976 C 106.314 167.937,111.133 156.273,115.306 149.561 C 115.873 148.649,116.151 147.902,115.925 147.902 C 115.698 147.902,115.512 148.070,115.512 148.275 M242.732 165.694 C 194.641 186.767,187.081 190.638,184.397 195.569 C 183.257 197.663,182.525 203.707,183.411 203.707 C 183.614 203.707,183.668 204.000,183.531 204.357 C 183.364 204.793,183.432 204.914,183.739 204.724 C 183.999 204.563,184.195 204.663,184.195 204.959 C 184.195 209.334,191.339 214.435,197.472 214.437 C 204.880 214.441,206.780 212.745,244.976 172.028 C 253.194 163.267,254.270 161.985,252.195 163.422 C 250.299 164.734,249.913 164.771,251.317 163.504 C 252.068 162.827,253.605 161.744,254.732 161.099 C 256.452 160.114,257.150 159.583,256.683 159.617 C 256.629 159.621,250.351 162.355,242.732 165.694 M102.049 184.195 C 101.897 185.296,101.856 186.279,101.957 186.379 C 102.057 186.480,102.260 185.658,102.407 184.553 C 102.553 183.447,102.595 182.464,102.499 182.368 C 102.403 182.272,102.200 183.094,102.049 184.195 M101.554 188.098 C 101.554 188.849,101.634 189.156,101.732 188.780 C 101.831 188.405,101.831 187.790,101.732 187.415 C 101.634 187.039,101.554 187.346,101.554 188.098 M100.804 197.659 C 100.806 198.946,100.879 199.426,100.966 198.725 C 101.053 198.023,101.051 196.970,100.962 196.383 C 100.873 195.797,100.802 196.371,100.804 197.659 M267.317 262.637 C 267.317 267.950,267.296 268.091,266.560 267.631 C 264.438 266.306,263.754 261.262,265.340 258.634 C 266.987 255.905,267.317 256.572,267.317 262.637 " stroke="none" fill="#4f98be" fill-rule="evenodd"></path><path id="path4" d="M1.171 0.631 C 1.171 1.095,1.403 1.199,2.049 1.026 C 2.532 0.897,92.268 0.789,201.463 0.786 C 333.557 0.782,400.000 0.650,400.000 0.390 C 400.000 0.131,333.268 0.000,200.585 0.000 C 17.194 0.000,1.171 0.051,1.171 0.631 M195.220 99.781 C 195.595 99.879,196.210 99.879,196.585 99.781 C 196.961 99.683,196.654 99.603,195.902 99.603 C 195.151 99.603,194.844 99.683,195.220 99.781 M207.907 99.788 C 208.392 99.882,209.095 99.878,209.468 99.780 C 209.841 99.683,209.444 99.606,208.585 99.611 C 207.727 99.615,207.422 99.695,207.907 99.788 M236.878 105.713 C 237.398 106.088,237.398 106.137,236.878 106.154 C 236.556 106.165,237.518 106.705,239.017 107.353 C 302.734 134.922,322.973 208.287,282.038 263.300 C 276.223 271.113,273.528 272.521,267.902 270.683 C 267.473 270.542,267.737 270.720,268.488 271.077 C 271.848 272.675,276.595 271.551,278.987 268.591 C 316.576 222.089,311.343 159.775,266.729 122.608 C 259.403 116.505,242.419 106.509,240.311 107.061 C 239.925 107.162,239.697 107.102,239.804 106.928 C 239.981 106.643,239.545 106.425,237.073 105.564 C 236.445 105.345,236.407 105.374,236.878 105.713 M195.512 116.952 C 128.090 122.041,93.593 201.896,136.025 254.653 C 139.366 258.807,140.101 260.301,140.089 262.914 C 140.062 268.886,133.895 272.774,127.805 270.660 C 127.376 270.511,127.539 270.686,128.168 271.049 C 132.384 273.480,139.128 270.410,140.528 265.422 C 141.661 261.385,140.973 259.231,136.951 254.235 C 107.047 217.090,113.707 162.978,151.702 134.383 C 172.988 118.362,201.538 113.219,226.325 120.940 C 227.711 121.371,228.913 121.656,228.997 121.572 C 229.288 121.281,222.616 119.395,217.951 118.448 C 210.762 116.990,202.400 116.432,195.512 116.952 M229.463 121.873 C 229.463 121.966,230.561 122.441,231.902 122.929 C 233.244 123.418,236.141 124.659,238.341 125.688 C 243.032 127.882,243.692 127.902,239.317 125.719 C 235.260 123.693,229.463 121.431,229.463 121.873 M130.138 129.268 L 126.634 132.878 130.244 129.374 C 133.597 126.119,134.031 125.659,133.748 125.659 C 133.690 125.659,132.065 127.283,130.138 129.268 M242.732 127.754 C 242.732 127.858,243.829 128.599,245.171 129.399 C 246.512 130.200,248.488 131.472,249.561 132.225 C 250.634 132.979,251.267 133.297,250.967 132.932 C 250.666 132.567,248.910 131.340,247.064 130.205 C 242.620 127.473,242.732 127.536,242.732 127.754 M253.268 134.720 C 253.268 134.797,254.102 135.545,255.122 136.383 C 256.141 137.220,256.624 137.502,256.195 137.008 C 255.436 136.136,253.268 134.441,253.268 134.720 M259.106 139.805 C 260.063 140.824,260.897 141.659,260.959 141.659 C 261.252 141.659,260.943 141.308,259.220 139.691 L 257.366 137.951 259.106 139.805 M263.220 144.000 C 264.058 144.859,264.832 145.561,264.939 145.561 C 265.046 145.561,264.448 144.859,263.610 144.000 C 262.771 143.141,261.998 142.439,261.890 142.439 C 261.783 142.439,262.381 143.141,263.220 144.000 M242.850 174.525 C 221.507 197.352,206.786 212.029,203.902 213.359 C 200.487 214.934,194.789 214.937,191.578 213.365 C 188.298 211.759,184.195 207.087,184.195 204.959 C 184.195 204.663,183.999 204.563,183.739 204.724 C 183.432 204.914,183.364 204.793,183.531 204.357 C 183.668 204.000,183.617 203.707,183.416 203.707 C 183.213 203.707,183.099 202.370,183.158 200.683 C 183.281 197.131,184.089 195.288,186.856 192.237 C 188.183 190.774,188.307 190.555,187.322 191.415 C 178.219 199.353,183.079 213.482,195.410 214.930 C 202.082 215.713,204.789 214.315,213.629 205.517 C 224.067 195.128,257.252 160.000,256.627 160.000 C 256.519 160.000,250.320 166.536,242.850 174.525 M248.195 162.927 C 247.659 163.234,247.395 163.485,247.610 163.485 C 247.824 163.485,248.439 163.234,248.976 162.927 C 249.512 162.620,249.776 162.369,249.561 162.369 C 249.346 162.369,248.732 162.620,248.195 162.927 M241.951 165.659 C 241.415 165.965,241.151 166.216,241.366 166.216 C 241.580 166.216,242.195 165.965,242.732 165.659 C 243.268 165.352,243.532 165.101,243.317 165.101 C 243.102 165.101,242.488 165.352,241.951 165.659 M234.341 168.961 C 233.054 169.576,232.176 170.081,232.390 170.083 C 232.910 170.088,237.574 167.868,237.073 167.854 C 236.859 167.848,235.629 168.346,234.341 168.961 M229.463 171.122 C 228.927 171.429,228.663 171.680,228.878 171.680 C 229.093 171.680,229.707 171.429,230.244 171.122 C 230.780 170.815,231.044 170.564,230.829 170.564 C 230.615 170.564,230.000 170.815,229.463 171.122 M225.951 172.683 C 225.415 172.990,225.151 173.241,225.366 173.241 C 225.580 173.241,226.195 172.990,226.732 172.683 C 227.268 172.376,227.532 172.125,227.317 172.125 C 227.102 172.125,226.488 172.376,225.951 172.683 M222.439 174.244 C 221.473 174.761,220.859 175.184,221.073 175.184 C 221.288 175.184,222.254 174.761,223.220 174.244 C 224.185 173.727,224.800 173.304,224.585 173.304 C 224.371 173.304,223.405 173.727,222.439 174.244 M218.537 176.000 C 217.785 176.411,217.346 176.748,217.561 176.748 C 217.776 176.748,218.566 176.411,219.317 176.000 C 220.068 175.589,220.507 175.252,220.293 175.252 C 220.078 175.252,219.288 175.589,218.537 176.000 M213.854 178.146 C 212.888 178.664,212.273 179.087,212.488 179.087 C 212.702 179.087,213.668 178.664,214.634 178.146 C 215.600 177.629,216.215 177.206,216.000 177.206 C 215.785 177.206,214.820 177.629,213.854 178.146 M209.561 180.098 C 208.595 180.615,207.980 181.038,208.195 181.038 C 208.410 181.038,209.376 180.615,210.341 180.098 C 211.307 179.580,211.922 179.157,211.707 179.157 C 211.493 179.157,210.527 179.580,209.561 180.098 M204.488 182.439 C 203.951 182.746,203.688 182.997,203.902 182.997 C 204.117 182.997,204.732 182.746,205.268 182.439 C 205.805 182.132,206.068 181.881,205.854 181.881 C 205.639 181.881,205.024 182.132,204.488 182.439 M1.363 290.732 C 1.363 350.293,1.408 374.659,1.463 344.878 C 1.519 315.098,1.519 266.366,1.463 236.585 C 1.408 206.805,1.363 231.171,1.363 290.732 M199.024 184.976 C 196.985 186.027,195.493 186.887,195.707 186.887 C 195.922 186.887,197.766 186.027,199.805 184.976 C 201.844 183.924,203.337 183.064,203.122 183.064 C 202.907 183.064,201.063 183.924,199.024 184.976 M190.341 189.295 C 189.537 189.720,188.878 190.155,188.878 190.261 C 188.878 190.368,189.580 190.097,190.439 189.659 C 191.298 189.221,192.000 188.778,192.000 188.675 C 192.000 188.420,191.997 188.421,190.341 189.295 M285.359 191.220 C 285.359 191.971,285.439 192.278,285.537 191.902 C 285.635 191.527,285.635 190.912,285.537 190.537 C 285.439 190.161,285.359 190.468,285.359 191.220 M285.770 195.317 C 285.773 196.390,285.849 196.783,285.939 196.190 C 286.028 195.597,286.026 194.719,285.933 194.239 C 285.841 193.759,285.767 194.244,285.770 195.317 M100.399 195.512 C 100.399 196.478,100.475 196.873,100.568 196.390 C 100.661 195.907,100.661 195.117,100.568 194.634 C 100.475 194.151,100.399 194.546,100.399 195.512 M285.790 206.439 C 285.790 208.049,285.859 208.707,285.943 207.902 C 286.027 207.098,286.027 205.780,285.943 204.976 C 285.859 204.171,285.790 204.829,285.790 206.439 M100.414 206.244 C 100.416 207.532,100.489 208.011,100.576 207.310 C 100.662 206.609,100.661 205.555,100.572 204.969 C 100.482 204.382,100.411 204.956,100.414 206.244 " stroke="none" fill="#5e5a66" fill-rule="evenodd"></path></g></svg>