<?xml version="1.0" encoding="UTF-8"?>
<!DOCTYPE svg PUBLIC "-//W3C//DTD SVG 1.1//EN" "http://www.w3.org/Graphics/SVG/1.1/DTD/svg11.dtd">
<svg xmlns="http://www.w3.org/2000/svg" version="1.1" width="100px" height="24px" style="shape-rendering:geometricPrecision; text-rendering:geometricPrecision; image-rendering:optimizeQuality; fill-rule:evenodd; clip-rule:evenodd" xmlns:xlink="http://www.w3.org/1999/xlink">
<g><path style="opacity:0.781" fill="#fefffe" d="M 3.5,4.5 C 7.22402,4.05016 9.39069,5.71683 10,9.5C 11.0836,8.33492 11.9169,7.00158 12.5,5.5C 17.8333,4.16667 23.1667,4.16667 28.5,5.5C 24.6197,6.79477 20.7864,6.79477 17,5.5C 13.5395,8.75604 12.0395,12.756 12.5,17.5C 11.1667,17.5 9.83333,17.5 8.5,17.5C 8.66018,15.8008 8.49351,14.1341 8,12.5C 6.22259,9.9406 4.72259,7.27394 3.5,4.5 Z"/></g>
<g><path style="opacity:0.75" fill="#fefffe" d="M 29.5,4.5 C 30.8333,4.5 32.1667,4.5 33.5,4.5C 33.5,8.83333 33.5,13.1667 33.5,17.5C 32.1667,17.5 30.8333,17.5 29.5,17.5C 29.5,13.1667 29.5,8.83333 29.5,4.5 Z"/></g>
<g><path style="opacity:0.73" fill="#fefffe" d="M 35.5,4.5 C 36.8333,4.5 38.1667,4.5 39.5,4.5C 39.3398,6.19919 39.5065,7.86586 40,9.5C 42.1617,5.6316 45.3283,4.1316 49.5,5C 43.009,8.78102 43.009,12.781 49.5,17C 45.7399,18.1762 42.9066,17.0096 41,13.5C 39.8118,14.5634 39.3118,15.8967 39.5,17.5C 38.1667,17.5 36.8333,17.5 35.5,17.5C 35.5,13.1667 35.5,8.83333 35.5,4.5 Z"/></g>
<g><path style="opacity:0.75" fill="#fefffe" d="M 51.5,4.5 C 54.5184,4.33537 57.5184,4.50204 60.5,5C 61.8213,6.54452 61.4879,7.71119 59.5,8.5C 54.2025,5.61055 52.0359,7.27722 53,13.5C 55.1203,16.0801 57.287,16.0801 59.5,13.5C 60.1667,13.8333 60.8333,14.1667 61.5,14.5C 63.0894,11.579 64.5894,8.579 66,5.5C 67.6667,4.16667 69.3333,4.16667 71,5.5C 72.6667,9.16667 74.3333,12.8333 76,16.5C 76.4935,14.8659 76.6602,13.1992 76.5,11.5C 88.4347,10.0704 88.4347,8.07041 76.5,5.5C 78.1667,5.16667 79.8333,4.83333 81.5,4.5C 85.5027,3.67634 88.1694,5.17634 89.5,9C 86.3201,11.9885 86.3201,14.6551 89.5,17C 87.7412,17.7975 86.0745,17.6309 84.5,16.5C 81.9177,12.1997 80.5843,12.5331 80.5,17.5C 77.8127,17.6641 75.146,17.4974 72.5,17C 71.0352,14.5704 69.7018,12.0704 68.5,9.5C 67.2982,12.0704 65.9648,14.5704 64.5,17C 60.1667,17.6667 55.8333,17.6667 51.5,17C 47.5471,12.8353 47.5471,8.66865 51.5,4.5 Z"/></g>
<g><path style="opacity:0.909" fill="#fefffe" d="M 17.5,9.5 C 21.226,9.17744 24.8927,9.51078 28.5,10.5C 26.6667,10.8333 24.8333,11.1667 23,11.5C 20.7047,11.4535 18.8714,10.7868 17.5,9.5 Z"/></g>
<g><path style="opacity:0.749" fill="#fefffe" d="M 17.5,14.5 C 21.1667,14.5 24.8333,14.5 28.5,14.5C 28.5,15.5 28.5,16.5 28.5,17.5C 24.8333,17.5 21.1667,17.5 17.5,17.5C 17.5,16.5 17.5,15.5 17.5,14.5 Z"/></g>
</svg>
