<svg id="svg" version="1.1" xmlns="http://www.w3.org/2000/svg" xmlns:xlink="http://www.w3.org/1999/xlink" width="400" height="400" viewBox="0, 0, 400,400"><g id="svgg"><path id="path0" d="M195.179 100.756 C 192.957 100.903,191.084 101.079,191.016 101.146 C 190.949 101.213,195.401 101.268,200.910 101.268 C 206.419 101.268,212.420 101.389,214.244 101.536 C 216.326 101.704,216.980 101.681,216.000 101.476 C 214.383 101.136,201.915 100.305,200.195 100.421 C 199.659 100.458,197.401 100.608,195.179 100.756 M231.220 105.225 C 234.010 106.194,236.433 107.237,236.605 107.542 C 236.776 107.848,237.172 108.098,237.483 108.098 C 237.958 108.098,238.049 109.313,238.049 115.660 C 238.049 121.995,238.146 123.302,238.650 123.721 C 239.189 124.168,239.240 123.406,239.138 116.390 C 239.076 112.084,239.156 108.643,239.317 108.743 C 239.478 108.842,239.610 112.386,239.610 116.617 L 239.610 124.310 241.073 125.065 C 277.682 143.936,296.689 189.035,283.875 226.618 C 279.948 238.135,270.668 254.388,266.854 256.429 C 266.424 256.659,265.628 257.819,265.084 259.007 C 262.898 263.781,265.087 268.558,270.244 270.271 C 270.673 270.413,270.826 270.605,270.584 270.696 C 270.342 270.788,269.245 270.521,268.146 270.103 C 265.812 269.216,265.886 269.791,268.243 270.861 C 271.845 272.497,276.632 271.500,278.953 268.632 C 300.696 241.760,308.394 211.089,301.467 178.923 C 293.855 143.575,265.243 113.263,231.115 104.393 C 225.489 102.930,225.529 103.249,231.220 105.225 M198.439 116.561 C 129.391 119.252,92.956 200.259,136.209 254.918 C 139.622 259.232,140.316 260.914,139.952 263.997 C 139.356 269.042,134.148 272.127,128.585 270.730 L 127.415 270.437 128.542 271.064 C 131.851 272.905,137.659 270.834,139.784 267.055 C 142.138 262.869,141.427 259.801,136.727 253.854 C 100.198 207.641,120.305 140.139,176.126 121.586 C 201.110 113.282,232.504 118.136,251.512 133.242 C 253.623 134.919,255.610 136.288,255.610 136.066 C 255.610 135.681,248.545 130.647,245.040 128.535 C 234.249 122.032,220.371 117.592,208.585 116.874 C 202.203 116.485,201.195 116.454,198.439 116.561 M292.160 157.392 C 303.954 180.929,305.881 207.474,297.618 232.585 C 295.709 238.388,291.707 247.415,291.044 247.415 C 290.872 247.415,290.732 247.586,290.732 247.795 C 290.732 248.005,290.382 248.751,289.954 249.454 L 289.177 250.732 289.076 201.306 C 289.021 174.121,289.113 151.964,289.281 152.068 C 289.449 152.172,290.744 154.568,292.160 157.392 M254.829 161.607 C 252.580 163.565,247.072 167.202,246.788 166.918 C 246.668 166.799,248.027 165.632,249.806 164.326 C 251.586 163.020,252.921 161.951,252.774 161.951 C 251.720 161.951,205.757 182.598,195.244 187.795 C 185.707 192.508,183.198 195.466,183.239 201.951 C 183.301 211.784,194.650 218.456,203.902 214.099 C 206.825 212.723,222.428 197.185,243.265 174.902 C 256.377 160.879,258.593 158.332,254.829 161.607 M196.293 254.234 L 196.293 257.561 190.509 257.561 C 179.143 257.561,176.564 260.124,176.841 271.139 C 177.131 282.677,178.401 283.317,200.973 283.317 L 215.761 283.317 216.856 284.259 C 218.384 285.573,218.520 290.922,217.063 292.379 L 216.174 293.268 196.575 293.463 L 176.976 293.659 176.864 297.920 C 176.725 303.243,175.840 302.816,187.024 302.823 L 196.293 302.829 196.293 306.156 L 196.293 309.483 202.634 309.376 L 208.976 309.268 209.089 306.049 L 209.202 302.829 213.187 302.822 C 226.204 302.796,228.887 300.267,228.620 288.270 C 228.350 276.098,227.232 275.512,204.292 275.512 C 186.929 275.512,187.707 275.713,187.707 271.234 C 187.707 269.197,187.882 268.359,188.453 267.653 L 189.199 266.732 207.646 266.623 C 220.553 266.547,226.252 266.383,226.621 266.077 C 227.014 265.750,227.120 264.640,227.037 261.698 L 226.927 257.756 218.064 257.651 L 209.202 257.546 209.089 254.334 L 208.976 251.122 202.634 251.015 L 196.293 250.907 196.293 254.234 " stroke="none" fill="#425a8d" fill-rule="evenodd"></path><path id="path1" d="M0.000 200.000 L 0.000 400.000 200.000 400.000 L 400.000 400.000 400.000 200.000 L 400.000 0.000 200.000 0.000 L 0.000 0.000 0.000 200.000 M212.908 99.926 C 279.844 106.427,322.323 177.257,296.797 239.805 C 292.393 250.594,281.323 267.868,276.962 270.754 C 267.678 276.898,257.721 263.494,265.743 255.651 C 272.890 248.664,280.337 234.365,283.462 221.627 C 299.277 157.173,237.682 100.877,174.881 122.388 C 120.591 140.984,101.072 208.134,136.806 253.377 C 141.612 259.462,142.387 262.391,140.341 266.732 C 137.078 273.650,127.044 273.916,123.644 267.175 C 123.197 266.287,121.565 263.805,120.018 261.659 C 86.963 215.795,96.416 153.184,141.463 119.610 C 162.039 104.275,186.967 97.407,212.908 99.926 M258.322 159.122 C 258.312 159.283,256.303 161.518,253.858 164.089 C 249.346 168.833,248.130 170.440,251.483 167.227 C 253.471 165.322,253.875 165.081,253.291 166.146 C 253.084 166.522,252.607 167.532,252.229 168.390 C 251.851 169.249,251.314 170.184,251.037 170.469 C 250.759 170.754,250.330 171.369,250.083 171.835 C 249.836 172.301,249.324 173.034,248.944 173.463 C 245.889 176.918,244.648 178.283,243.122 179.863 C 242.156 180.864,240.155 182.995,238.676 184.598 C 227.006 197.240,211.669 212.683,210.782 212.683 C 210.540 212.683,210.341 212.823,210.341 212.995 C 210.341 213.166,209.644 213.737,208.791 214.263 C 207.938 214.789,207.236 215.351,207.230 215.512 C 207.224 215.673,206.879 215.805,206.462 215.805 C 206.045 215.805,205.611 215.956,205.497 216.141 C 204.504 217.748,195.770 218.282,192.137 216.959 C 190.881 216.501,189.546 216.034,189.171 215.920 C 188.795 215.807,188.488 215.571,188.488 215.395 C 188.488 215.220,188.129 214.963,187.691 214.824 C 186.887 214.569,183.415 211.184,183.415 210.656 C 183.415 210.500,183.089 210.058,182.691 209.674 C 181.635 208.656,180.685 205.495,180.429 202.146 C 179.961 196.044,183.701 189.910,189.854 186.687 C 190.927 186.125,192.023 185.490,192.289 185.276 C 192.698 184.947,198.657 182.001,202.732 180.114 C 207.085 178.097,208.652 177.414,209.132 177.325 C 209.432 177.268,209.783 177.062,209.912 176.865 C 210.041 176.669,211.345 176.032,212.810 175.449 C 214.275 174.867,216.251 173.957,217.200 173.427 C 218.150 172.896,218.927 172.553,218.927 172.664 C 218.927 172.774,219.547 172.516,220.305 172.091 C 221.062 171.665,221.984 171.313,222.353 171.308 C 222.722 171.304,223.463 170.956,224.000 170.537 C 224.537 170.117,225.119 169.770,225.293 169.765 C 225.468 169.760,226.522 169.340,227.635 168.831 C 228.748 168.323,231.590 167.082,233.951 166.075 C 236.312 165.067,238.595 164.085,239.024 163.893 C 240.883 163.062,245.031 161.909,246.829 161.725 C 247.902 161.615,249.000 161.451,249.268 161.360 C 250.620 160.903,249.429 161.719,246.732 163.098 C 242.086 165.473,243.811 164.928,250.927 161.772 C 257.333 158.931,258.359 158.563,258.322 159.122 M209.089 254.334 L 209.202 257.546 218.064 257.651 L 226.927 257.756 227.037 261.698 C 227.120 264.640,227.014 265.750,226.621 266.077 C 226.252 266.383,220.553 266.547,207.646 266.623 L 189.199 266.732 188.453 267.653 C 187.882 268.359,187.707 269.197,187.707 271.234 C 187.707 275.713,186.929 275.512,204.292 275.512 C 227.232 275.512,228.350 276.098,228.620 288.270 C 228.887 300.267,226.204 302.796,213.187 302.822 L 209.202 302.829 209.089 306.049 L 208.976 309.268 202.634 309.376 L 196.293 309.483 196.293 306.156 L 196.293 302.829 187.024 302.823 C 175.840 302.816,176.725 303.243,176.864 297.920 L 176.976 293.659 196.575 293.463 L 216.174 293.268 217.063 292.379 C 218.520 290.922,218.384 285.573,216.856 284.259 L 215.761 283.317 200.973 283.317 C 178.401 283.317,177.131 282.677,176.841 271.139 C 176.564 260.124,179.143 257.561,190.509 257.561 L 196.293 257.561 196.293 254.234 L 196.293 250.907 202.634 251.015 L 208.976 251.122 209.089 254.334 " stroke="none" fill="#fbfbfb" fill-rule="evenodd"></path><path id="path2" d="M193.224 100.306 C 119.762 107.411,77.668 190.081,115.427 253.093 C 118.424 258.093,119.504 259.776,120.298 260.681 C 122.914 263.662,124.878 266.723,124.878 267.820 C 124.878 268.588,127.331 270.727,127.968 270.515 C 128.260 270.417,128.398 270.501,128.275 270.701 C 127.728 271.585,134.007 271.035,135.788 270.042 C 141.348 266.943,141.497 261.601,136.209 254.918 C 85.441 190.761,144.995 98.458,223.610 119.455 C 230.514 121.300,243.449 126.764,242.924 127.615 C 242.789 127.833,242.972 127.883,243.361 127.734 C 243.822 127.557,243.941 127.623,243.742 127.943 C 243.584 128.200,243.599 128.384,243.776 128.354 C 244.607 128.209,245.094 128.432,244.841 128.841 C 244.670 129.117,244.734 129.186,245.005 129.018 C 245.612 128.643,247.110 129.497,246.780 130.031 C 246.619 130.291,246.692 130.352,246.963 130.184 C 247.504 129.850,249.095 130.872,248.680 131.287 C 248.521 131.447,248.566 131.542,248.780 131.499 C 249.616 131.330,250.181 131.531,249.945 131.912 C 249.809 132.132,249.843 132.280,250.020 132.240 C 250.660 132.098,251.697 132.775,251.450 133.174 C 251.310 133.400,251.358 133.484,251.556 133.362 C 252.030 133.069,254.899 135.215,254.529 135.585 C 254.372 135.742,254.420 135.823,254.634 135.766 C 254.849 135.708,255.990 136.581,257.171 137.705 C 259.382 139.810,263.600 143.397,262.732 142.434 C 260.851 140.348,262.816 141.798,265.210 144.263 L 268.177 147.317 265.047 143.802 C 259.131 137.158,248.667 128.979,241.073 125.065 L 239.610 124.310 239.610 116.617 C 239.610 112.386,239.478 108.842,239.317 108.743 C 239.156 108.643,239.076 112.084,239.138 116.390 C 239.240 123.406,239.189 124.168,238.650 123.721 C 238.146 123.302,238.049 121.995,238.049 115.660 C 238.049 109.313,237.958 108.098,237.483 108.098 C 237.172 108.098,236.776 107.848,236.605 107.542 C 236.433 107.237,234.010 106.194,231.220 105.225 C 228.429 104.256,226.418 103.453,226.749 103.439 C 227.494 103.409,234.124 105.117,236.456 105.940 C 237.399 106.273,238.247 106.469,238.340 106.375 C 238.588 106.127,231.449 103.893,226.927 102.804 C 217.132 100.446,202.780 99.382,193.224 100.306 M207.805 100.752 C 211.454 100.970,215.141 101.295,216.000 101.476 C 216.980 101.681,216.326 101.704,214.244 101.536 C 212.420 101.389,206.419 101.268,200.910 101.268 C 195.401 101.268,190.949 101.213,191.016 101.146 C 191.084 101.079,192.957 100.903,195.179 100.756 C 197.401 100.608,199.659 100.458,200.195 100.421 C 200.732 100.385,204.156 100.534,207.805 100.752 M273.951 129.366 C 274.679 130.117,275.363 130.732,275.470 130.732 C 275.577 130.732,275.070 130.117,274.341 129.366 C 273.613 128.615,272.930 128.000,272.823 128.000 C 272.715 128.000,273.223 128.615,273.951 129.366 M249.717 164.391 C 247.987 165.661,246.668 166.799,246.788 166.918 C 247.020 167.150,252.969 163.368,253.637 162.562 C 254.680 161.306,252.596 162.278,249.717 164.391 M265.170 266.964 C 265.343 267.266,265.765 267.849,266.108 268.261 C 266.686 268.956,266.681 268.992,266.029 268.754 C 265.635 268.610,265.424 268.656,265.548 268.857 C 265.779 269.231,269.774 270.829,270.477 270.829 C 271.304 270.829,270.407 270.140,269.289 269.916 C 268.647 269.788,267.387 268.948,266.488 268.049 C 265.590 267.151,264.997 266.663,265.170 266.964 " stroke="none" fill="#7c4db1" fill-rule="evenodd"></path><path id="path3" d="M193.171 99.933 C 114.513 107.397,73.607 198.401,120.388 261.854 C 121.733 263.678,123.189 265.873,123.625 266.732 C 124.060 267.590,125.003 268.820,125.720 269.463 L 127.024 270.634 125.951 269.442 C 125.361 268.786,124.878 268.031,124.878 267.764 C 124.878 266.722,122.857 263.597,120.298 260.681 C 119.504 259.776,118.424 258.093,115.427 253.093 C 91.953 213.919,98.429 162.469,130.904 130.144 C 150.140 110.997,173.414 100.956,200.957 99.922 L 208.585 99.635 202.537 99.627 C 199.210 99.622,194.995 99.760,193.171 99.933 M209.861 100.185 C 210.562 100.272,211.616 100.270,212.202 100.181 C 212.789 100.092,212.215 100.021,210.927 100.023 C 209.639 100.026,209.159 100.098,209.861 100.185 M214.341 100.562 C 214.717 100.660,215.332 100.660,215.707 100.562 C 216.083 100.464,215.776 100.383,215.024 100.383 C 214.273 100.383,213.966 100.464,214.341 100.562 M217.073 100.952 C 217.449 101.050,218.063 101.050,218.439 100.952 C 218.815 100.854,218.507 100.773,217.756 100.773 C 217.005 100.773,216.698 100.854,217.073 100.952 M243.902 108.683 C 244.439 108.990,245.054 109.241,245.268 109.241 C 245.483 109.241,245.220 108.990,244.683 108.683 C 244.146 108.376,243.532 108.125,243.317 108.125 C 243.102 108.125,243.366 108.376,243.902 108.683 M196.000 117.732 C 196.376 117.831,196.990 117.831,197.366 117.732 C 197.741 117.634,197.434 117.554,196.683 117.554 C 195.932 117.554,195.624 117.634,196.000 117.732 M207.127 117.739 C 207.612 117.833,208.314 117.829,208.687 117.732 C 209.061 117.634,208.663 117.557,207.805 117.562 C 206.946 117.566,206.641 117.646,207.127 117.739 M271.220 126.634 C 271.948 127.385,272.631 128.000,272.738 128.000 C 272.846 128.000,272.338 127.385,271.610 126.634 C 270.882 125.883,270.198 125.268,270.091 125.268 C 269.983 125.268,270.491 125.883,271.220 126.634 M276.683 132.098 C 277.411 132.849,278.095 133.463,278.202 133.463 C 278.309 133.463,277.801 132.849,277.073 132.098 C 276.345 131.346,275.662 130.732,275.554 130.732 C 275.447 130.732,275.955 131.346,276.683 132.098 M258.341 139.122 C 259.070 139.873,259.753 140.488,259.860 140.488 C 259.968 140.488,259.460 139.873,258.732 139.122 C 258.004 138.371,257.320 137.756,257.213 137.756 C 257.105 137.756,257.613 138.371,258.341 139.122 M262.782 143.313 C 263.822 144.545,264.856 145.440,265.080 145.301 C 265.310 145.159,265.370 145.238,265.219 145.484 C 265.070 145.724,265.391 146.205,265.939 146.564 C 266.482 146.920,266.927 147.384,266.927 147.594 C 266.927 147.805,268.031 149.409,269.381 151.159 C 291.729 180.133,291.945 221.795,269.901 251.201 C 268.324 253.304,266.463 255.551,265.765 256.195 C 262.070 259.604,262.110 266.094,265.847 269.487 C 266.784 270.338,266.910 270.391,266.335 269.690 C 265.566 268.751,265.566 268.747,266.332 269.029 C 267.070 269.299,267.067 269.272,266.280 268.412 C 262.884 264.700,263.156 260.357,267.052 256.095 C 291.148 229.733,294.637 188.299,275.356 157.463 C 271.877 151.899,262.244 140.294,262.244 141.667 C 262.244 142.021,262.069 142.006,261.567 141.609 C 261.195 141.314,261.742 142.081,262.782 143.313 M289.076 201.306 L 289.177 250.732 289.954 249.454 C 290.382 248.751,290.732 248.005,290.732 247.795 C 290.732 247.586,290.872 247.415,291.044 247.415 C 291.403 247.415,292.529 245.209,294.729 240.195 C 304.521 217.881,305.188 189.266,296.437 166.885 C 294.728 162.515,289.854 152.422,289.281 152.068 C 289.113 151.964,289.021 174.121,289.076 201.306 M255.224 160.266 C 203.971 182.578,189.403 189.486,186.187 193.005 C 184.049 195.345,182.590 198.962,182.682 201.700 C 182.719 202.806,182.804 202.614,183.063 200.834 C 184.209 192.989,185.916 191.792,214.439 178.812 C 240.611 166.903,253.688 161.347,253.026 162.418 C 252.748 162.867,253.943 162.061,256.000 160.410 C 257.146 159.491,257.047 159.472,255.224 160.266 M253.055 164.390 L 251.512 166.049 253.171 164.506 C 254.713 163.072,255.009 162.732,254.713 162.732 C 254.650 162.732,253.903 163.478,253.055 164.390 M248.195 169.561 C 247.247 170.527,246.559 171.317,246.667 171.317 C 246.774 171.317,247.637 170.527,248.585 169.561 C 249.533 168.595,250.221 167.805,250.114 167.805 C 250.006 167.805,249.143 168.595,248.195 169.561 M242.518 175.707 L 240.976 177.366 242.634 175.823 C 244.177 174.389,244.472 174.049,244.177 174.049 C 244.113 174.049,243.367 174.795,242.518 175.707 M237.255 181.366 L 235.122 183.610 237.366 181.477 C 239.451 179.495,239.789 179.122,239.499 179.122 C 239.438 179.122,238.428 180.132,237.255 181.366 M229.846 189.171 L 226.146 192.976 229.951 189.276 C 233.485 185.840,233.934 185.366,233.651 185.366 C 233.593 185.366,231.881 187.078,229.846 189.171 M303.716 193.951 C 303.716 194.917,303.792 195.312,303.885 194.829 C 303.978 194.346,303.978 193.556,303.885 193.073 C 303.792 192.590,303.716 192.985,303.716 193.951 M220.479 198.927 L 217.171 202.341 220.585 199.033 C 222.463 197.213,224.000 195.677,224.000 195.618 C 224.000 195.334,223.552 195.755,220.479 198.927 M118.356 197.659 C 118.358 198.732,118.434 199.124,118.524 198.531 C 118.614 197.938,118.611 197.060,118.519 196.580 C 118.426 196.100,118.353 196.585,118.356 197.659 M304.139 200.390 C 304.137 202.322,304.203 203.161,304.285 202.256 C 304.367 201.350,304.368 199.769,304.287 198.743 C 304.207 197.717,304.140 198.459,304.139 200.390 M118.350 204.098 C 118.350 205.063,118.426 205.459,118.519 204.976 C 118.612 204.493,118.612 203.702,118.519 203.220 C 118.426 202.737,118.350 203.132,118.350 204.098 M210.723 208.683 L 207.415 212.098 210.829 208.789 C 214.001 205.716,214.422 205.268,214.138 205.268 C 214.079 205.268,212.543 206.805,210.723 208.683 M303.738 208.195 C 303.740 209.698,303.810 210.264,303.895 209.455 C 303.979 208.645,303.978 207.416,303.891 206.723 C 303.805 206.030,303.736 206.693,303.738 208.195 M186.927 211.317 C 187.655 212.068,188.338 212.683,188.446 212.683 C 188.553 212.683,188.045 212.068,187.317 211.317 C 186.589 210.566,185.905 209.951,185.798 209.951 C 185.691 209.951,186.199 210.566,186.927 211.317 M197.171 215.684 C 197.546 215.782,198.161 215.782,198.537 215.684 C 198.912 215.585,198.605 215.505,197.854 215.505 C 197.102 215.505,196.795 215.585,197.171 215.684 " stroke="none" fill="#9b9dca" fill-rule="evenodd"></path><path id="path4" d="M175.024 103.024 C 174.532 103.236,174.460 103.360,174.829 103.360 C 175.151 103.360,175.766 103.209,176.195 103.024 C 176.687 102.813,176.759 102.689,176.390 102.689 C 176.068 102.689,175.454 102.840,175.024 103.024 M172.293 103.805 C 171.801 104.016,171.729 104.140,172.098 104.140 C 172.420 104.140,173.034 103.989,173.463 103.805 C 173.955 103.593,174.028 103.469,173.659 103.469 C 173.337 103.469,172.722 103.620,172.293 103.805 M156.780 110.073 C 154.688 111.137,152.976 112.095,152.976 112.202 C 152.976 112.377,160.742 108.614,161.138 108.248 C 161.722 107.709,160.063 108.403,156.780 110.073 M148.390 114.777 C 147.060 115.628,146.630 116.201,147.805 115.555 C 148.700 115.062,150.103 113.978,149.854 113.970 C 149.746 113.967,149.088 114.330,148.390 114.777 M142.326 118.946 C 132.921 125.852,124.161 134.827,118.255 143.610 C 116.709 145.909,118.004 144.400,121.101 140.293 C 126.978 132.498,133.651 125.879,141.659 119.899 C 146.588 116.219,146.985 115.902,146.680 115.902 C 146.565 115.902,144.606 117.272,142.326 118.946 M199.902 117.752 C 201.137 117.829,203.156 117.829,204.390 117.752 C 205.624 117.674,204.615 117.611,202.146 117.611 C 199.678 117.611,198.668 117.674,199.902 117.752 M240.390 127.024 C 240.927 127.331,241.541 127.582,241.756 127.582 C 241.971 127.582,241.707 127.331,241.171 127.024 C 240.634 126.718,240.020 126.467,239.805 126.467 C 239.590 126.467,239.854 126.718,240.390 127.024 M273.561 128.585 C 274.289 129.337,274.973 129.951,275.080 129.951 C 275.187 129.951,274.679 129.337,273.951 128.585 C 273.223 127.834,272.540 127.220,272.432 127.220 C 272.325 127.220,272.833 127.834,273.561 128.585 M256.000 137.098 C 256.000 137.165,256.571 137.736,257.268 138.366 L 258.537 139.512 257.390 138.244 C 256.322 137.062,256.000 136.796,256.000 137.098 M261.268 142.049 C 262.107 142.907,262.880 143.610,262.988 143.610 C 263.095 143.610,262.497 142.907,261.659 142.049 C 260.820 141.190,260.046 140.488,259.939 140.488 C 259.832 140.488,260.430 141.190,261.268 142.049 M264.585 145.683 C 264.585 145.750,265.156 146.321,265.854 146.951 L 267.122 148.098 265.976 146.829 C 264.907 145.647,264.585 145.382,264.585 145.683 M114.349 149.683 C 112.210 153.305,109.655 158.236,109.665 158.722 C 109.669 158.888,110.692 157.093,111.940 154.731 C 113.188 152.370,114.646 149.736,115.181 148.878 C 116.657 146.507,116.745 146.341,116.526 146.341 C 116.414 146.341,115.435 147.845,114.349 149.683 M256.000 159.610 C 255.249 160.021,254.810 160.359,255.024 160.360 C 255.239 160.361,255.854 160.112,256.390 159.805 C 258.147 158.800,258.142 159.189,256.374 161.073 L 254.634 162.927 256.488 161.187 C 259.071 158.762,258.851 158.049,256.000 159.610 M108.350 161.504 C 107.782 162.770,107.325 163.959,107.335 164.146 C 107.345 164.334,107.873 163.363,108.509 161.987 C 109.146 160.612,109.602 159.423,109.524 159.345 C 109.446 159.267,108.918 160.239,108.350 161.504 M252.878 160.976 C 252.341 161.282,252.078 161.533,252.293 161.533 C 252.507 161.533,253.122 161.282,253.659 160.976 C 254.195 160.669,254.459 160.418,254.244 160.418 C 254.029 160.418,253.415 160.669,252.878 160.976 M249.333 161.325 C 249.244 161.410,248.205 161.579,247.024 161.699 C 245.068 161.899,240.966 163.024,239.024 163.893 C 238.595 164.085,236.312 165.067,233.951 166.075 C 231.590 167.082,228.748 168.323,227.635 168.831 C 226.522 169.340,225.468 169.760,225.293 169.765 C 225.119 169.770,224.537 170.117,224.000 170.537 C 223.463 170.956,222.722 171.304,222.353 171.308 C 221.984 171.313,221.062 171.665,220.305 172.091 C 219.547 172.516,218.927 172.774,218.927 172.664 C 218.927 172.553,218.150 172.896,217.200 173.427 C 216.251 173.957,214.275 174.867,212.810 175.449 C 211.345 176.032,210.041 176.669,209.912 176.865 C 209.783 177.062,209.432 177.268,209.132 177.325 C 208.652 177.414,207.085 178.097,202.732 180.114 C 198.657 182.001,192.698 184.947,192.289 185.276 C 192.023 185.490,190.927 186.125,189.854 186.687 C 183.701 189.910,179.961 196.044,180.429 202.146 C 180.685 205.495,181.635 208.656,182.691 209.674 C 183.089 210.058,183.415 210.500,183.415 210.656 C 183.415 211.184,186.887 214.569,187.691 214.824 C 188.129 214.963,188.488 215.220,188.488 215.395 C 188.488 215.571,188.795 215.807,189.171 215.920 C 189.546 216.034,190.881 216.501,192.137 216.959 C 195.770 218.282,204.504 217.748,205.497 216.141 C 205.611 215.956,206.045 215.805,206.462 215.805 C 206.879 215.805,207.224 215.673,207.230 215.512 C 207.236 215.351,207.938 214.789,208.791 214.263 C 209.644 213.737,210.341 213.166,210.341 212.995 C 210.341 212.823,210.540 212.683,210.782 212.683 C 211.669 212.683,227.006 197.240,238.676 184.598 C 240.155 182.995,242.156 180.864,243.122 179.863 C 244.648 178.283,245.889 176.918,248.944 173.463 C 249.324 173.034,249.836 172.301,250.083 171.835 C 250.330 171.369,250.759 170.754,251.037 170.469 C 251.314 170.184,251.851 169.249,252.229 168.390 C 252.607 167.532,253.080 166.528,253.281 166.161 C 253.573 165.627,253.517 165.542,253.003 165.739 C 252.526 165.922,252.442 165.843,252.678 165.432 C 252.852 165.127,252.363 165.475,251.590 166.204 C 250.817 166.934,250.197 167.636,250.212 167.765 C 250.300 168.532,250.080 168.976,249.613 168.976 C 249.320 168.976,246.993 171.212,244.442 173.946 C 225.933 193.785,208.978 211.075,206.391 212.752 C 205.344 213.430,204.488 214.131,204.488 214.310 C 204.488 214.488,204.356 214.595,204.195 214.546 C 203.892 214.456,200.844 215.178,198.875 215.807 C 198.256 216.005,197.465 216.020,197.119 215.841 C 196.772 215.661,195.615 215.388,194.549 215.233 C 193.482 215.078,191.771 214.526,190.746 214.007 C 189.722 213.488,188.787 213.071,188.670 213.081 C 188.357 213.109,184.976 209.082,184.976 208.683 C 184.976 208.497,184.773 208.469,184.525 208.623 C 184.258 208.788,184.180 208.730,184.334 208.482 C 184.476 208.252,184.371 207.829,184.101 207.544 C 183.831 207.258,183.552 206.673,183.480 206.244 C 183.409 205.815,183.256 204.873,183.140 204.152 C 183.006 203.321,182.819 203.019,182.628 203.326 C 182.118 204.153,182.699 200.128,183.438 197.715 C 183.824 196.458,184.058 195.218,183.958 194.959 C 183.859 194.699,184.165 194.147,184.639 193.731 C 185.179 193.257,185.381 193.193,185.180 193.561 C 185.005 193.883,185.589 193.452,186.479 192.604 C 188.211 190.953,188.668 190.233,187.220 191.439 C 186.352 192.160,186.350 192.160,187.034 191.406 C 187.415 190.986,188.030 190.641,188.400 190.638 C 188.770 190.636,189.031 190.420,188.979 190.158 C 188.928 189.896,189.279 189.491,189.760 189.258 C 190.600 188.851,190.605 188.859,189.877 189.442 C 188.556 190.500,189.515 190.117,194.898 187.434 C 197.783 185.996,200.041 184.652,199.914 184.447 C 199.788 184.242,199.868 184.188,200.092 184.326 C 200.676 184.687,204.525 183.010,204.225 182.525 C 204.089 182.304,204.160 182.237,204.384 182.375 C 204.968 182.736,208.817 181.058,208.518 180.574 C 208.380 180.350,208.459 180.289,208.697 180.436 C 209.292 180.804,214.680 178.341,214.371 177.842 C 214.221 177.599,214.317 177.560,214.614 177.744 C 215.241 178.131,218.983 176.406,218.657 175.880 C 218.517 175.652,218.614 175.612,218.890 175.782 C 219.606 176.224,221.852 175.204,221.197 174.734 C 220.819 174.463,220.865 174.424,221.372 174.587 C 222.265 174.875,230.310 171.349,229.979 170.814 C 229.832 170.576,229.928 170.536,230.218 170.715 C 230.843 171.102,233.813 169.773,233.490 169.251 C 233.346 169.018,233.440 168.976,233.719 169.148 C 234.348 169.537,236.548 168.608,236.227 168.090 C 236.082 167.854,236.167 167.801,236.431 167.965 C 237.162 168.417,238.672 167.812,238.003 167.335 C 237.585 167.037,237.618 167.001,238.151 167.172 C 238.760 167.369,245.624 164.698,246.210 164.037 C 246.336 163.895,246.132 163.894,245.756 164.035 C 243.762 164.787,243.994 164.573,246.732 163.138 C 248.395 162.265,249.756 161.466,249.756 161.361 C 249.756 161.131,249.556 161.114,249.333 161.325 M248.780 162.717 C 247.493 163.332,246.615 163.837,246.829 163.839 C 247.349 163.844,252.013 161.624,251.512 161.610 C 251.298 161.604,250.068 162.103,248.780 162.717 M276.762 163.309 C 277.229 164.270,277.678 164.989,277.759 164.907 C 277.936 164.731,276.359 161.561,276.095 161.561 C 275.995 161.561,276.295 162.347,276.762 163.309 M106.192 167.070 C 105.741 168.407,105.438 169.568,105.520 169.651 C 105.603 169.733,106.039 168.706,106.491 167.369 C 106.942 166.032,107.245 164.871,107.162 164.788 C 107.080 164.706,106.644 165.733,106.192 167.070 M252.488 166.199 C 252.488 166.389,252.005 166.853,251.415 167.231 L 250.341 167.917 251.288 166.886 C 252.310 165.770,252.488 165.668,252.488 166.199 M281.771 174.862 C 281.836 175.595,284.055 182.689,284.074 182.224 C 284.102 181.497,282.320 175.263,281.989 174.932 C 281.861 174.804,281.763 174.772,281.771 174.862 M284.309 184.195 C 285.349 190.877,285.663 193.220,285.722 194.732 C 285.790 196.486,285.790 196.486,285.945 194.990 C 286.112 193.379,285.121 185.924,284.484 184.000 C 284.101 182.841,284.099 182.843,284.309 184.195 M101.172 188.293 C 101.176 189.151,101.256 189.456,101.349 188.971 C 101.443 188.486,101.439 187.783,101.341 187.410 C 101.244 187.037,101.167 187.434,101.172 188.293 M100.800 192.000 C 100.800 193.180,100.873 193.663,100.962 193.073 C 101.052 192.483,101.052 191.517,100.962 190.927 C 100.873 190.337,100.800 190.820,100.800 192.000 M118.725 194.341 C 118.725 195.093,118.805 195.400,118.903 195.024 C 119.001 194.649,119.001 194.034,118.903 193.659 C 118.805 193.283,118.725 193.590,118.725 194.341 M100.454 201.171 C 100.454 205.034,100.513 206.562,100.584 204.566 C 100.655 202.569,100.654 199.408,100.583 197.541 C 100.512 195.674,100.454 197.307,100.454 201.171 M286.196 200.976 C 286.196 203.444,286.260 204.454,286.337 203.220 C 286.415 201.985,286.415 199.966,286.337 198.732 C 286.260 197.498,286.196 198.507,286.196 200.976 M118.350 200.976 C 118.350 201.941,118.426 202.337,118.519 201.854 C 118.612 201.371,118.612 200.580,118.519 200.098 C 118.426 199.615,118.350 200.010,118.350 200.976 M304.098 205.073 C 304.103 205.932,304.183 206.237,304.276 205.752 C 304.369 205.266,304.366 204.564,304.268 204.191 C 304.170 203.817,304.094 204.215,304.098 205.073 M285.727 207.515 C 285.561 212.505,283.589 222.331,281.550 228.326 C 280.505 231.398,280.392 231.928,280.975 231.024 C 282.882 228.071,286.331 211.546,285.948 207.200 L 285.795 205.463 285.727 207.515 M118.740 208.000 C 118.740 208.966,118.817 209.361,118.910 208.878 C 119.003 208.395,119.003 207.605,118.910 207.122 C 118.817 206.639,118.740 207.034,118.740 208.000 M100.795 210.927 C 100.797 212.000,100.873 212.393,100.963 211.800 C 101.053 211.206,101.050 210.328,100.958 209.848 C 100.865 209.368,100.792 209.854,100.795 210.927 M101.164 214.244 C 101.164 214.995,101.244 215.302,101.342 214.927 C 101.440 214.551,101.440 213.937,101.342 213.561 C 101.244 213.185,101.164 213.493,101.164 214.244 M101.554 217.366 C 101.554 218.117,101.634 218.424,101.732 218.049 C 101.831 217.673,101.831 217.059,101.732 216.683 C 101.634 216.307,101.554 216.615,101.554 217.366 M276.276 240.474 C 273.178 246.436,267.597 254.435,265.639 255.718 C 264.682 256.345,262.751 259.759,263.136 260.144 C 263.246 260.255,263.533 259.750,263.773 259.022 C 264.013 258.295,264.844 257.098,265.620 256.362 C 269.216 252.952,278.937 238.221,278.127 237.411 C 278.033 237.317,277.199 238.695,276.276 240.474 M262.751 262.634 C 262.751 263.815,262.824 264.298,262.914 263.707 C 263.003 263.117,263.003 262.151,262.914 261.561 C 262.824 260.971,262.751 261.454,262.751 262.634 M138.317 269.366 L 137.171 270.634 138.439 269.488 C 139.137 268.858,139.707 268.287,139.707 268.220 C 139.707 267.918,139.385 268.184,138.317 269.366 " stroke="none" fill="#ced8e7" fill-rule="evenodd"></path></g></svg>